<svg width="854" height="949" viewBox="0 0 854 949" fill="none" xmlns="http://www.w3.org/2000/svg">
<path fill-rule="evenodd" clip-rule="evenodd" d="M380.712 3.71842L376.993 7.43684L377.514 36.9839C378.017 65.6053 378.154 66.7605 381.893 73.842C384.016 77.8631 387.624 82.9034 389.911 85.0426C408.177 102.134 444.475 100.396 459.265 81.7219C467.345 71.5185 467.911 68.5341 467.888 36.2367C467.875 19.9256 467.382 5.85617 466.791 4.97153C465.232 2.63783 459.775 0 456.506 0C454.953 0 452.01 1.31452 449.967 2.92296C446.259 5.83862 446.25 5.90589 445.748 33.264C445.307 57.3409 444.897 61.2581 442.385 65.4108C436.925 74.4371 423.379 77.1949 411.345 71.732C401.467 67.2459 400.648 64.2893 400.648 33.0783V6.0609L396.795 3.03117C391.519 -1.1186 385.283 -0.852474 380.712 3.71842ZM512.237 10.2458C508.381 11.8001 506.642 14.9088 505.297 22.6644C504.739 25.8813 500.656 43.2436 496.223 61.2465C491.579 80.1076 488.528 95.4331 489.024 97.41C490.099 101.691 497.618 105.778 501.979 104.451C508.646 102.421 510.165 99.2539 515.696 75.8745C518.714 63.1137 521.632 53.4894 522.177 54.4851C522.724 55.4809 527.66 69.3881 533.148 85.3906C542.043 111.333 543.604 114.778 547.555 117.188C553.3 120.691 560.149 120.639 563.992 117.059C566.915 114.335 592.198 41.9642 592.198 36.32C592.198 33.4906 584.201 26.3199 581.047 26.3199C577.006 26.3199 570.474 30.6671 569.537 33.9805C568.152 38.876 556.944 73.2703 555.378 77.4288C554.229 80.479 552.524 76.4754 543.98 50.6571C538.454 33.96 532.844 18.6374 531.515 16.6079C529.18 13.043 521.162 8.67534 517.306 8.86543C516.275 8.91661 513.994 9.53805 512.237 10.2458ZM284.401 19.1901C276.337 20.626 242.575 33.3897 239.438 36.1884C238.032 37.4445 236.879 39.9697 236.879 41.8004C236.879 49.1232 266.036 119.416 270.639 123.192C274.495 126.355 279.082 126.46 283.334 123.483C289.698 119.025 289.943 116.46 285.178 104.208C282.748 97.9613 280.756 92.0992 280.753 91.1824C280.746 89.4365 290.886 84.8086 294.717 84.8086C295.935 84.8086 302.008 89.1485 308.214 94.452C314.418 99.7554 321.375 105.073 323.674 106.268C328.636 108.85 334.19 107.821 338.869 103.455C345.157 97.5855 342.72 93.0833 326.752 81.0654C320.749 76.5486 315.839 72.3315 315.839 71.6955C315.839 71.0594 317.564 66.7722 319.672 62.1677C322.754 55.4371 323.327 52.4951 322.597 47.1711C319.954 27.883 303.454 15.7963 284.401 19.1901ZM296.165 44.5318C304.212 52.577 298.788 60.8619 282.25 65.7866C276.444 67.5164 271.543 68.7198 271.358 68.4625C270.08 66.6654 264.661 52.4571 264.664 50.9071C264.667 48.8659 283.558 41.3033 289.219 41.0766C291.066 41.002 294.191 42.5578 296.165 44.5318ZM624.015 55.1987C621.159 58.4214 588.47 122.929 587.271 127.709C585.77 133.683 591.384 138.699 608.929 147.055C628.414 156.339 638.511 158.697 649.82 156.606C660.409 154.649 667.599 150.796 675.109 143.053C684.179 133.702 687.846 124.471 687.794 111.129C687.709 89.2684 676.856 74.4547 650.506 60.2346C635.342 52.0506 628.036 50.6615 624.015 55.1987ZM181.733 63.5348C167.249 68.0619 154.334 79.2858 147.526 93.2661C144.76 98.9439 144.156 102.616 144.109 114.053C144.042 130.436 147.136 138.43 157.598 148.898C167.379 158.684 178.06 163.034 192.312 163.036C202.614 163.037 205.227 162.454 213.785 158.24C230.937 149.795 243.05 132.063 240.598 118.988C238.834 109.595 230.81 90.6677 227.65 88.4554C223.003 85.2005 221.083 85.6509 208.335 92.978C189.331 103.904 185.958 110.147 194.465 118.655C199.413 123.603 202.274 123.397 210.105 117.533C215.329 113.62 216.628 114.483 216.841 122.016C217.132 132.285 206.408 140.284 192.282 140.335C178.809 140.385 168.152 130.177 166.985 116.103C165.454 97.6367 175.791 86.3483 197.565 82.7103C202.902 81.8184 206.408 78.9671 208.134 74.1154C209.271 70.9146 205.74 63.5831 202.451 62.3212C198.634 60.856 188.382 61.457 181.733 63.5348ZM647.625 84.0073C653.708 87.1526 661.621 96.9684 663.72 103.968C667.644 117.071 658.722 132.692 645.942 135.088C640.152 136.175 629.998 132.806 619.951 126.463L614.048 122.737L625.297 100.976C637.708 76.9624 636.208 78.1029 647.625 84.0073ZM391.874 141.986C331.883 148.729 271.312 173.32 220.853 211.412C204.162 224.012 177.092 250.431 163.281 267.596C125.083 315.077 99.1574 375.011 91.4735 433.605C88.6207 455.357 88.5388 498.419 91.3126 519.087C105.661 626.054 181.533 729.793 280.015 777.101C313.704 793.284 347.547 803.414 382.969 807.916C412.448 811.664 459.87 810.377 487.65 805.078C513.965 800.057 532.902 794.562 555.47 785.4C657.95 743.791 738.179 647.343 760.251 539.219C765.372 514.132 766.607 498.378 765.819 468.234C764.961 435.428 762.085 416.21 753.731 387.488C714.564 252.813 597.282 155.745 457.054 141.945C438.826 140.151 408.02 140.17 391.874 141.986ZM132.416 193.378C97.5066 228.841 67.6071 272.604 50.679 313.011C41.5943 334.699 35.0933 354.434 35.0933 360.328C35.0933 369.263 46.133 373.35 52.172 366.651C53.8038 364.841 57.6933 355.794 60.8151 346.546C68.2476 324.526 85.2035 290.075 98.5608 269.852C112.339 248.991 123.91 234.481 144.2 212.623C153.224 202.9 160.739 194.017 160.9 192.883C161.957 185.392 157.478 179.853 150.363 179.853C146.453 179.853 143.648 181.966 132.416 193.378ZM695.934 182.549C693.768 184.304 692.604 186.826 692.604 189.767C692.604 193.506 695.206 197.013 707.655 210.052C750.976 255.426 779.72 302.043 794.582 351.026C799.074 365.831 800.582 368.156 806.437 369.305C809.699 369.944 811.929 369.318 815.008 366.897C818.665 364.019 819.086 362.887 818.485 357.552C817.44 348.272 805.141 316.004 793.949 293.175C776.597 257.782 755.253 228.128 724.22 196.303C710.711 182.448 707.477 179.853 703.722 179.853C701.271 179.853 697.766 181.066 695.934 182.549ZM408.586 187.999C411.279 190.694 411.426 192.191 409.37 196.034C406.438 201.513 397.723 198.705 397.723 192.282C397.723 186.124 404.169 183.583 408.586 187.999ZM469.103 196.316C469.502 199.764 469.041 200.324 465.813 200.324C462.856 200.324 462.061 199.6 462.061 196.912C462.061 195.035 462.523 193.039 463.086 192.475C465.253 190.308 468.661 192.483 469.103 196.316ZM355.041 199.958C354.447 203.041 351.852 202.846 351.191 199.67C350.915 198.345 351.72 197.399 353.126 197.399C354.632 197.399 355.348 198.357 355.041 199.958ZM513.238 201.176C513.238 202.45 512.458 203.232 511.503 202.913C508.79 202.01 508.341 198.862 510.924 198.862C512.197 198.862 513.238 199.903 513.238 201.176ZM309.914 214.016C310.636 215.917 312.265 217.869 313.533 218.356C316.444 219.473 316.551 222.257 313.684 222.257C312.498 222.257 310.468 224.307 309.173 226.812C306.766 231.463 304.836 231.134 303.903 225.913C303.599 224.209 302.012 222.794 300.106 222.52C295.691 221.892 295.943 218.41 300.486 217.269C302.846 216.677 304.141 215.326 304.141 213.456C304.141 209.41 308.317 209.815 309.914 214.016ZM567.81 216.467C568.788 219.056 570.87 221.258 572.8 221.742C577.034 222.805 577.108 226.296 572.91 226.907C570.68 227.233 569.328 228.847 568.458 232.222C566.897 238.271 562.458 238.163 561.755 232.057C561.389 228.89 560.339 227.802 557.003 227.135C551.48 226.031 551.527 223.348 557.105 221.242C559.882 220.194 561.492 218.556 561.492 216.78C561.492 210.606 565.523 210.407 567.81 216.467ZM454.441 229.631C480.681 232.45 522.348 244.679 535.844 253.522C540.297 256.439 554.641 286.01 559.146 301.56C573.703 351.807 568.211 412.859 545.248 456.032C542.521 461.16 535.428 470.561 529.485 476.923C519.272 487.857 515.198 490.244 515.616 485.048C515.717 483.792 515.059 482.992 514.154 483.272C513.249 483.551 509.583 480.374 506.008 476.211L499.507 468.641L511.857 467.877C524.101 467.12 527.861 466.079 527.861 463.447C527.861 462.21 520.96 454.769 488.61 421.119L478.066 410.152L458.312 430.623C431.334 458.581 427.532 463.209 429.734 465.415C430.831 466.513 436.153 467.179 443.85 467.179C450.647 467.179 456.206 467.508 456.205 467.91C456.205 468.312 450.559 474.728 443.66 482.166L431.116 495.692H408.677H386.238L368.951 477.414C359.442 467.363 350.635 459.138 349.381 459.136C346.603 459.136 345.241 460.409 326.942 480.102L312.454 495.692L302.084 495.67C296.38 495.657 291.054 495.164 290.25 494.573C289.446 493.982 285.612 489.716 281.73 485.091L274.67 476.683L285.385 476.661C300.205 476.63 301.811 475.317 295.35 468.518C292.546 465.564 286.997 460.107 283.021 456.39C279.045 452.673 273.508 447.329 270.716 444.514L265.641 439.396L277.21 438.962C283.572 438.724 289.355 437.952 290.063 437.244C291.424 435.883 289.149 433.279 261.468 404.512C245.606 388.029 244.163 386.891 241.303 388.634C239.609 389.666 237.489 390.058 236.594 389.504C235.584 388.881 235.378 389.165 236.049 390.253C236.716 391.33 234.069 395.226 229.192 400.348C204.557 426.225 195.939 436.022 196.709 437.27C197.184 438.038 202.951 438.665 209.526 438.665H221.481L204.004 456.187C192.735 467.486 187.031 474.21 187.945 475.124C188.724 475.904 194.196 476.737 200.106 476.977L210.852 477.414L204.528 485.456C201.049 489.879 197.648 493.895 196.97 494.379C194.598 496.069 153.137 497.343 151.566 495.772C149.79 493.996 152.316 467.339 155.871 450.363C173.96 363.949 240.257 284.169 323.375 248.792C363.211 231.838 410.554 224.917 454.441 229.631ZM261.371 247.48C260.45 250.247 255.888 250.64 255.888 247.953C255.888 246.597 257.138 245.653 258.934 245.653C260.721 245.653 261.73 246.409 261.371 247.48ZM216.073 272.247C215.17 274.958 212.022 275.407 212.022 272.825C212.022 271.551 213.063 270.51 214.336 270.51C215.61 270.51 216.392 271.291 216.073 272.247ZM656.536 276.302C656.536 277.076 658.017 279.113 659.826 280.831L663.116 283.954L659.826 286.184C658.017 287.411 656.536 289.32 656.536 290.429C656.536 291.537 655.22 292.444 653.611 292.444C652.003 292.444 650.687 291.537 650.687 290.429C650.687 289.32 649.206 287.396 647.397 286.152L644.107 283.888L647.397 281.503C649.206 280.192 650.687 278.168 650.687 277.007C650.687 275.846 652.003 274.897 653.611 274.897C655.22 274.897 656.536 275.529 656.536 276.302ZM209.097 287.447C209.097 290.029 205.949 289.58 205.045 286.87C204.727 285.913 205.509 285.132 206.782 285.132C208.056 285.132 209.097 286.174 209.097 287.447ZM185.702 306.421C185.702 307.58 185.044 308.528 184.239 308.528C183.435 308.528 182.777 307.172 182.777 305.517C182.777 303.862 183.435 302.913 184.239 303.41C185.044 303.907 185.702 305.261 185.702 306.421ZM683.587 315.839C683.587 318.519 682.707 319.619 680.291 319.962C676.697 320.473 674.657 317.338 676.113 313.543C676.641 312.166 678.313 311.435 680.291 311.716C682.707 312.059 683.587 313.159 683.587 315.839ZM151.211 365.98C153.495 369.6 148.807 374.155 145.564 371.465C142.84 369.203 142.584 364.622 145.125 363.605C147.77 362.547 149.461 363.206 151.211 365.98ZM718.51 399.531C719.762 401.528 719.461 402.709 717.099 405.071C713.676 408.494 709.763 407.729 708.379 403.367C706.402 397.134 714.973 393.888 718.51 399.531ZM23.1221 416.269C24.1764 416.691 25.4383 416.638 25.9237 416.153C26.4092 415.668 25.5465 415.322 24.0053 415.385C22.3018 415.456 21.9553 415.802 23.1221 416.269ZM818.842 418.465C803.309 426.456 801.297 447.911 815.093 458.433C830.752 470.376 853.935 459.015 853.935 439.396C853.935 420.951 835.445 409.921 818.842 418.465ZM13.3033 418.582C11.3703 419.575 7.8039 422.851 5.37662 425.864C1.71523 430.405 0.991424 432.571 1.12741 438.566C1.21807 442.54 2.3045 447.75 3.54153 450.142C5.93811 454.776 12.4815 460.628 15.1852 460.555C16.0815 460.53 15.6648 459.84 14.2567 459.019C12.8486 458.199 11.6978 456.772 11.6978 455.846C11.6978 454.62 12.1715 454.639 13.4524 455.919C15.9894 458.456 18.2427 458.081 16.0844 455.481C14.593 453.684 14.6939 453.287 16.6372 453.287C17.9415 453.287 19.0089 452.629 19.0089 451.825C19.0089 449.831 18.0248 449.981 14.0461 452.59C12.1774 453.814 9.7238 454.462 8.59497 454.029C4.73764 452.548 0.162349 436.718 3.07216 434.919C3.90416 434.404 4.29457 433.223 3.93779 432.296C2.85136 429.462 6.60927 426.889 8.88741 428.906C10.3906 430.239 10.3803 430.035 8.8377 428.003C5.97614 424.229 9.08334 421.158 13.1761 423.714C14.7538 424.7 16.8755 425.463 17.8917 425.413C18.908 425.362 18.2602 424.725 16.45 423.998C14.6398 423.27 13.16 421.916 13.16 420.987C13.16 419.715 13.6586 419.712 15.1822 420.977C16.7483 422.277 17.4092 422.125 18.1067 420.306C19.7458 416.035 18.8685 415.72 13.3033 418.582ZM31.6819 422.094C31.1453 422.629 30.7066 423.748 30.7066 424.58C30.7066 425.495 31.388 425.409 32.4364 424.36C33.3883 423.409 33.827 422.29 33.4117 421.875C32.9965 421.459 32.2171 421.557 31.6819 422.094ZM32.1411 427.732C30.5955 429.594 30.6861 429.809 32.6938 429.038C34.0127 428.531 35.0933 427.529 35.0933 426.811C35.0933 424.931 34.2467 425.195 32.1411 427.732ZM47.0762 437.934C47.1054 440.347 47.4329 441.157 47.8043 439.734C48.1757 438.311 48.1509 436.337 47.7502 435.348C47.3496 434.358 47.0469 435.522 47.0762 437.934ZM34.1955 457.961C35.6548 458.778 37.3948 458.88 38.0835 458.192C38.7722 457.502 37.5893 456.841 35.4427 456.713C32.0986 456.515 31.9246 456.69 34.1955 457.961ZM19.8131 512.301C15.2086 516.906 15.1209 520.495 19.0703 542.592C24.9367 575.405 37.3568 614.254 52.2743 646.452C58.4083 659.691 79.185 696.402 83.016 700.768C85.8 703.941 93.31 704.086 97.6426 701.05C103.522 696.932 101.997 690.777 90.3592 671.652C65.7706 631.245 45.5993 575.718 39.0032 530.273C36.766 514.866 34.7964 511.318 27.4897 509.535C24.4205 508.786 22.7127 509.402 19.8131 512.301ZM820.192 513.126C816.856 516.463 815.918 518.717 815.918 523.404C815.918 532.1 809.44 562.758 803.378 582.757C793.666 614.794 778.742 647.878 761.193 676.276C756.511 683.853 753.057 691.142 753.051 693.457C753.032 701.87 763.738 706.397 770.342 700.768C774.455 697.261 788.38 673.951 798.614 653.443C815.442 619.714 827.475 583.845 834.232 547.257C839.024 521.316 838.987 515.806 833.998 511.883C828.753 507.757 825.245 508.072 820.192 513.126ZM720.367 523.942C721.128 524.704 713.858 557.57 710.685 567.706L707.596 577.576L509.159 577.623C355.475 577.658 310.198 578.07 308.401 579.451C307.126 580.43 305.26 582.771 304.258 584.655C301.639 589.569 304.741 596.418 310.607 598.679C314.008 599.989 361.647 600.344 505.562 600.134C645.204 599.929 696.016 600.292 696.016 601.491C696.016 603.067 680.576 629.338 676.127 635.334C673.979 638.227 672.138 638.26 498.258 638.463L322.561 638.667L319.93 641.915C316.513 646.135 316.583 652.401 320.097 656.739L322.891 660.191L490.707 660.922L658.521 661.654L641.81 678.857L625.098 696.058L427.529 696.038L229.962 696.016L213.314 678.835L196.668 661.654L215.446 660.922C232.974 660.24 234.408 659.962 237.014 656.739C240.063 652.966 240.609 647.615 238.372 643.433C235.897 638.808 228.555 637.527 204.506 637.527H181.343L176.301 630.581C171.493 623.959 159.382 602.378 159.382 600.432C159.382 599.924 167.833 599.509 178.164 599.509C195.241 599.509 197.192 599.237 199.659 596.512C203.588 592.17 203.241 583.752 198.992 580.312C196 577.889 192.887 577.576 171.768 577.576H147.922L144.944 568.437C141.481 557.814 136.665 538.576 135.276 529.816C134.467 524.721 134.727 523.649 136.869 523.236C139.977 522.638 719.764 523.339 720.367 523.942ZM594.465 719.293C593.251 721.256 571.417 734.172 557.514 741.15C477.689 781.212 382.279 782.383 303.41 744.267C288.447 737.035 265.625 723.742 261.79 720.025C259.94 718.231 282.493 717.949 427.472 717.949C529.106 717.949 594.968 718.478 594.465 719.293ZM126.537 730.411C116.575 733.9 112.095 743.408 115.521 753.791C118.019 761.359 124.464 765.078 133.702 764.278C139.73 763.757 141.724 762.78 145.766 758.369C158.442 744.538 144.419 724.149 126.537 730.411ZM717.392 729.712C706.843 732.833 701.518 744.077 705.672 754.459C708.42 761.324 713.713 764.74 721.604 764.74C732.643 764.74 739.882 757.318 739.882 746.002C739.882 734.931 728.244 726.501 717.392 729.712ZM237.732 814.62C234.418 817.228 233.872 818.658 234.244 823.759C234.679 829.716 234.854 829.892 245.653 835.222C251.684 838.199 257.1 840.831 257.688 841.071C258.277 841.31 253.506 854.785 247.087 871.015C240.669 887.246 235.417 902.441 235.417 904.785C235.417 912.963 246.61 917.442 252.876 911.772C254.432 910.364 260.792 896.281 267.011 880.477C273.23 864.672 278.718 851.262 279.208 850.677C279.697 850.091 284.027 851.227 288.829 853.201C300.473 857.987 306.007 857.936 309.883 853.007C313.852 847.962 313.719 843.502 309.48 839.521C307.591 837.745 295.912 832.119 283.526 827.016C271.141 821.913 258.045 816.356 254.426 814.667C246.084 810.772 242.636 810.763 237.732 814.62ZM595.573 814.47C591.087 816.276 589.269 819.7 580.448 842.968C576.178 854.228 572.245 863.96 571.708 864.596C571.17 865.232 568.266 859.806 565.254 852.54C559.171 837.864 554.476 832.748 548.395 834.167C542.629 835.514 537.688 841.87 538.836 846.465C539.645 849.703 557.851 890.83 569.816 916.444C573.856 925.095 577.77 927.069 584.972 924.087C593.105 920.718 594.055 915.242 588.557 903.43C584.497 894.708 584.084 890.928 586.594 885.421C588.742 880.707 589.173 880.844 610.65 893.063C629.467 903.766 635.319 905.045 640.728 899.638C644.341 896.024 644.91 888.436 641.792 885.427C639.574 883.286 620.223 872.089 606.354 864.921C596.516 859.837 596.561 860.9 605.286 840.22C613.136 821.613 613.184 821.353 609.664 816.878C606.474 812.822 601.691 812.005 595.573 814.47ZM341.037 849.208C339.411 850.834 337.69 854.701 337.211 857.801C336.733 860.903 334.264 876.271 331.728 891.953C325.784 928.692 325.639 933.866 330.461 937.381C335.814 941.285 387.359 948.712 392.582 946.331C400.035 942.936 401.101 932.192 394.41 927.923C392.613 926.777 383.576 924.758 374.328 923.434C350.001 919.954 350.928 920.324 350.954 914.094C350.991 905.518 351.625 905.231 365.554 907.487C385.31 910.688 388.868 910.549 392.015 906.457C395.055 902.503 395.546 897.543 393.312 893.368C391.636 890.236 386.303 888.645 368.844 886.066L356.781 884.285V879.465C356.781 870.148 356.471 870.248 376.214 873.16C399.8 876.638 402.394 876.579 406.242 872.485C410.13 868.345 410.323 862.685 406.729 858.246C404.419 855.393 400.836 854.431 381.506 851.471C344.734 845.839 344.424 845.821 341.037 849.208ZM469.372 853.005C450.337 858.557 437.877 872.546 434.187 892.516C430.025 915.025 444.658 939.548 466.598 946.836C478.02 950.63 493.99 949.305 505.163 943.638C514.242 939.032 521.202 931.849 522.744 925.492C525.154 915.562 510.235 910.675 501.896 918.662C493.05 927.135 481.792 929.073 471.2 923.945C454.63 915.923 451.422 893.414 465.089 881.067C471.191 875.554 478.074 873.601 486.544 874.976C504.809 877.943 505.255 877.915 508.616 873.641C514.416 866.27 512.051 859.573 502.101 855.171C493.87 851.53 478.025 850.481 469.372 853.005Z" fill="black"/>
<circle cx="24.1266" cy="439.396" r="24.1266" fill="black"/>
</svg>
